<?xml version="1.0" encoding="utf-8"?>
<!-- Generator: Adobe Illustrator 18.1.0, SVG Export Plug-In . SVG Version: 6.00 Build 0)  -->
<svg version="1.1" id="Layer_1" xmlns="http://www.w3.org/2000/svg" xmlns:xlink="http://www.w3.org/1999/xlink" x="0px" y="0px"
	 viewBox="0 0 612 792" enable-background="new 0 0 612 792" xml:space="preserve">
<path fill="#34DB93" d="M440.6,583.3c6.8,0,12.2-5.5,12.2-12.2V269.9c0-0.3-0.1-0.5-0.2-0.8c-0.1-1.1-0.3-2.2-0.6-3.2
	c-0.1-0.4-0.3-0.8-0.4-1.2c-0.6-1.2-1.3-2.3-2.2-3.2c-0.1-0.1-0.1-0.2-0.2-0.3c0,0,0,0,0-0.1l-67.3-66.1c-1-1-2.2-1.7-3.5-2.3
	c-0.4-0.2-0.8-0.3-1.2-0.4c-1-0.4-2.1-0.6-3.2-0.6c-0.2,0-0.5-0.1-0.7-0.1h-202c-6.8,0-12.2,5.5-12.2,12.2V571
	c0,6.8,5.5,12.2,12.2,12.2H440.6z M385.6,233l25.1,24.7h-25.1V233z M183.6,216.1h177.5v53.9c0,6.8,5.5,12.2,12.2,12.2h55.1v276.6
	H183.6V216.1z"/>
<path fill="#34DB93" d="M393.9,389.5H224.3c-6.8,0-12.2,5.5-12.2,12.2s5.5,12.2,12.2,12.2h169.6c6.8,0,12.2-5.5,12.2-12.2
	S400.7,389.5,393.9,389.5z"/>
<path fill="#34DB93" d="M393.9,338.1H224.3c-6.8,0-12.2,5.5-12.2,12.2c0,6.8,5.5,12.2,12.2,12.2h169.6c6.8,0,12.2-5.5,12.2-12.2
	C406.1,343.6,400.7,338.1,393.9,338.1z"/>
<path fill="#34DB93" d="M393.9,440.9H224.3c-6.8,0-12.2,5.5-12.2,12.2s5.5,12.2,12.2,12.2h169.6c6.8,0,12.2-5.5,12.2-12.2
	S400.7,440.9,393.9,440.9z"/>
<path fill="#34DB93" d="M393.9,492.3H224.3c-6.8,0-12.2,5.5-12.2,12.2s5.5,12.2,12.2,12.2h169.6c6.8,0,12.2-5.5,12.2-12.2
	S400.7,492.3,393.9,492.3z"/>
</svg>
