<?xml version="1.0" encoding="utf-8"?>
<!-- Generator: Adobe Illustrator 18.1.0, SVG Export Plug-In . SVG Version: 6.00 Build 0)  -->
<svg version="1.1" id="Layer_1" xmlns="http://www.w3.org/2000/svg" xmlns:xlink="http://www.w3.org/1999/xlink" x="0px" y="0px"
	 viewBox="0 0 612 792" enable-background="new 0 0 612 792" xml:space="preserve">
<path fill="#34DB93" d="M106.1,273.6h367.2c6.8,0,12.2-5.5,12.2-12.2c0-6.8-5.5-12.2-12.2-12.2H106.1c-6.8,0-12.2,5.5-12.2,12.2
	C93.8,268.1,99.3,273.6,106.1,273.6z"/>
<path fill="#34DB93" d="M106.1,542.9h367.2c6.8,0,12.2-5.5,12.2-12.2s-5.5-12.2-12.2-12.2H106.1c-6.8,0-12.2,5.5-12.2,12.2
	S99.3,542.9,106.1,542.9z"/>
<path fill="#34DB93" d="M106.1,408.2h367.2c6.8,0,12.2-5.5,12.2-12.2s-5.5-12.2-12.2-12.2H106.1c-6.8,0-12.2,5.5-12.2,12.2
	S99.3,408.2,106.1,408.2z"/>
</svg>
