<?xml version="1.0" encoding="utf-8"?>
<!-- Generator: Adobe Illustrator 18.1.0, SVG Export Plug-In . SVG Version: 6.00 Build 0)  -->
<svg version="1.1" id="Layer_1" xmlns="http://www.w3.org/2000/svg" xmlns:xlink="http://www.w3.org/1999/xlink" x="0px" y="0px"
	 viewBox="0 0 612 792" enable-background="new 0 0 612 792" xml:space="preserve">
<path fill="#34DB93" d="M493.9,376.4L310.3,242.9c-4.3-3.1-10.1-3.1-14.4,0L112.3,376.4c-5.5,4-6.7,11.6-2.7,17.1
	c4,5.5,11.6,6.7,17.1,2.7l24.2-17.6v167.9c0,6.8,5.5,12.2,12.2,12.2h98.8c6.8,0,12.2-5.5,12.2-12.2v-115H332v115
	c0,6.8,5.5,12.2,12.2,12.2h98.8c6.8,0,12.2-5.5,12.2-12.2V378.7l24.2,17.6c2.2,1.6,4.7,2.3,7.2,2.3c3.8,0,7.5-1.8,9.9-5
	C500.5,388.1,499.3,380.4,493.9,376.4z M430.8,534.3h-74.4v-115c0-6.8-5.5-12.2-12.2-12.2h-82.3c-6.8,0-12.2,5.5-12.2,12.2v115
	h-74.4V360.8l127.8-92.9l127.8,92.9L430.8,534.3L430.8,534.3z"/>
</svg>
