<?xml version="1.0" encoding="utf-8"?>
<!-- Generator: Adobe Illustrator 18.1.0, SVG Export Plug-In . SVG Version: 6.00 Build 0)  -->
<svg version="1.1" id="Layer_1" xmlns="http://www.w3.org/2000/svg" xmlns:xlink="http://www.w3.org/1999/xlink" x="0px" y="0px"
	 viewBox="0 0 612 792" enable-background="new 0 0 612 792" xml:space="preserve">
<path fill="#34DB93" d="M511.6,503.3V282.9c0-6.3-4.8-11.2-10.9-12c-0.1,0-0.2,0-0.3-0.1c-0.4,0-0.7-0.2-1.1-0.2H132.2
	c-0.4,0-0.7,0.2-1.1,0.2c-0.8,0.1-1.5,0.2-2.3,0.5c-0.8,0.2-1.5,0.5-2.2,0.9c-0.6,0.3-1.2,0.8-1.8,1.2c-0.7,0.5-1.3,1.1-1.8,1.8
	c-0.2,0.3-0.6,0.4-0.8,0.7c-0.2,0.3-0.3,0.7-0.5,1.1c-0.4,0.7-0.7,1.5-1,2.3c-0.2,0.8-0.4,1.6-0.5,2.4c0,0.4-0.2,0.8-0.2,1.2v220.3
	c0,6.8,5.5,12.2,12.2,12.2h367.2C506.1,515.5,511.6,510,511.6,503.3z M459,295.2l-143.8,99l-143.8-99H459z M144.4,491V306.2
	l163.9,112.9c2.1,1.4,4.5,2.2,6.9,2.2c2.4,0,4.8-0.7,6.9-2.2l164.9-113.6V491H144.4z"/>
</svg>
