<?xml version="1.0" encoding="utf-8"?>
<!-- Generator: Adobe Illustrator 18.1.0, SVG Export Plug-In . SVG Version: 6.00 Build 0)  -->
<svg version="1.1" id="Layer_1" xmlns="http://www.w3.org/2000/svg" xmlns:xlink="http://www.w3.org/1999/xlink" x="0px" y="0px"
	 viewBox="0 0 612 792" enable-background="new 0 0 612 792" xml:space="preserve">
<path fill="#34DB93" d="M186.6,324.9c6.8,0,12.2-5.5,12.2-12.2c0-6.8-5.5-12.2-12.2-12.2h-46.1c-6.8,0-12.2,5.5-12.2,12.2v268.7
	c0,6.8,5.5,12.2,12.2,12.2h268.7c6.8,0,12.2-5.5,12.2-12.2v-46.1c0-6.8-5.5-12.2-12.2-12.2s-12.2,5.5-12.2,12.2v33.8H152.7V324.9
	H186.6z"/>
<path fill="#34DB93" d="M507.6,201.9H238.9c-6.8,0-12.2,5.5-12.2,12.2v268.7c0,6.8,5.5,12.2,12.2,12.2h268.7
	c6.8,0,12.2-5.5,12.2-12.2V214.2C519.9,207.4,514.4,201.9,507.6,201.9z M495.4,470.6H251.2V226.4h244.2L495.4,470.6L495.4,470.6z"/>
</svg>
