<?xml version="1.0" encoding="utf-8"?>
<!-- Generator: Adobe Illustrator 18.1.0, SVG Export Plug-In . SVG Version: 6.00 Build 0)  -->
<svg version="1.1" id="Layer_1" xmlns="http://www.w3.org/2000/svg" xmlns:xlink="http://www.w3.org/1999/xlink" x="0px" y="0px"
	 viewBox="0 0 612 792" enable-background="new 0 0 612 792" xml:space="preserve">
<path fill="#34DB93" d="M393.4,324.4c33.3,0,60.3-27.1,60.3-60.3c0-33.3-27.1-60.3-60.3-60.3c-33.2,0-60.3,27.1-60.3,60.3
	c0,7.8,1.6,15.2,4.3,22.1l-119.8,69.5c-10.9-11-26.1-17.9-42.8-17.9c-33.2,0-60.3,27.1-60.3,60.3c0,33.3,27.1,60.3,60.3,60.3
	c17,0,32.2-7.1,43.2-18.4l118.8,74.9c-2.3,6.4-3.8,13.1-3.8,20.3c0,33.2,27.1,60.3,60.3,60.3c33.3,0,60.3-27.1,60.3-60.3
	c0-33.3-27.1-60.3-60.3-60.3c-17.3,0-32.8,7.4-43.8,19.1l-118.5-74.7c2.5-6.6,4-13.7,4-21.2c0-7.7-1.6-15-4.2-21.8l119.9-69.5
	C361.8,317.7,376.8,324.4,393.4,324.4z M393.4,499.4c19.8,0,35.8,16.1,35.8,35.8c0,19.7-16.1,35.8-35.8,35.8
	c-19.7,0-35.8-16.1-35.8-35.8c0-6.6,1.9-12.7,5-18c0.1-0.1,0.2-0.2,0.3-0.4c0.1-0.2,0.1-0.5,0.3-0.7
	C369.5,506.1,380.7,499.4,393.4,499.4z M174.9,434c-19.7,0-35.8-16.1-35.8-35.8c0-19.7,16.1-35.8,35.8-35.8c11.7,0,22,5.7,28.5,14.4
	c0.2,0.4,0.2,0.8,0.4,1.2c0.6,1,1.3,1.9,2.1,2.6c3,5.2,4.8,11.2,4.8,17.6c0,7-2.1,13.5-5.6,19.1c0,0-0.1,0-0.1,0.1
	c0,0.1,0,0.1-0.1,0.2C198.5,427.4,187.5,434,174.9,434z M393.4,228.3c19.8,0,35.8,16.1,35.8,35.8c0,19.7-16.1,35.8-35.8,35.8
	c-19.7,0-35.8-16.1-35.8-35.8C357.6,244.4,373.7,228.3,393.4,228.3z"/>
</svg>
