<?xml version="1.0" encoding="utf-8"?>
<!-- Generator: Adobe Illustrator 18.1.0, SVG Export Plug-In . SVG Version: 6.00 Build 0)  -->
<svg version="1.1" id="Layer_1" xmlns="http://www.w3.org/2000/svg" xmlns:xlink="http://www.w3.org/1999/xlink" x="0px" y="0px"
	 viewBox="0 0 612 792" enable-background="new 0 0 612 792" xml:space="preserve">
<path fill="#34DB93" d="M194.2,435.6L165.7,555c-1.2,4.8,0.7,9.8,4.7,12.7c4,2.9,9.3,3.2,13.5,0.7l107.2-63.7l107.2,63.7
	c1.9,1.2,4.1,1.7,6.3,1.7c2.6,0,5.1-0.8,7.3-2.4c4-2.9,5.8-7.9,4.7-12.7L388,435.6l94.7-80.2c3.8-3.2,5.3-8.4,3.7-13.1
	c-1.5-4.7-5.7-8.1-10.6-8.5l-124.9-10.3l-48.5-113.2c-1.9-4.5-6.4-7.4-11.2-7.4c-4.9,0-9.3,2.9-11.2,7.4l-48.5,113.2l-124.8,10.3
	c-4.9,0.4-9.1,3.7-10.6,8.5c-1.5,4.7,0,9.9,3.7,13.1L194.2,435.6z M240.7,347.3c4.5-0.4,8.5-3.2,10.2-7.4l40.2-93.7l40.1,93.7
	c1.8,4.2,5.7,7,10.2,7.4l102.7,8.5l-77.9,66c-3.5,3-5.1,7.7-4,12.2l23.5,98.6l-88.6-52.6c-3.8-2.3-8.7-2.3-12.5,0l-88.6,52.6
	l23.5-98.6c1.1-4.5-0.5-9.2-4-12.2l-77.8-66L240.7,347.3z"/>
</svg>
