<?xml version="1.0" encoding="utf-8"?>
<!-- Generator: Adobe Illustrator 18.1.0, SVG Export Plug-In . SVG Version: 6.00 Build 0)  -->
<svg version="1.1" id="Layer_1" xmlns="http://www.w3.org/2000/svg" xmlns:xlink="http://www.w3.org/1999/xlink" x="0px" y="0px"
	 viewBox="0 0 612 792" enable-background="new 0 0 612 792" xml:space="preserve">
<path fill="#34DB93" d="M110.6,588.9h52.5c6.8,0,12.2-5.5,12.2-12.2v-89.5c0-6.8-5.5-12.2-12.2-12.2h-52.5
	c-6.8,0-12.2,5.5-12.2,12.2v89.5C98.4,583.5,103.9,588.9,110.6,588.9z M122.9,499.4h28v65h-28V499.4z"/>
<path fill="#34DB93" d="M268,588.9c6.8,0,12.2-5.5,12.2-12.2V324.1c0-6.8-5.5-12.2-12.2-12.2h-52.5c-6.8,0-12.2,5.5-12.2,12.2v252.6
	c0,6.8,5.5,12.2,12.2,12.2H268z M227.8,336.3h28v228.2h-28V336.3z"/>
<path fill="#34DB93" d="M372.9,588.9c6.8,0,12.2-5.5,12.2-12.2V407.8c0-6.8-5.5-12.2-12.2-12.2h-52.4c-6.8,0-12.2,5.5-12.2,12.2
	v168.9c0,6.8,5.5,12.2,12.2,12.2H372.9z M332.7,420h28v144.5h-28V420z"/>
<path fill="#34DB93" d="M413.1,209.5v367.2c0,6.8,5.5,12.2,12.2,12.2h52.5c6.8,0,12.2-5.5,12.2-12.2V209.5c0-6.8-5.5-12.2-12.2-12.2
	h-52.5C418.6,197.3,413.1,202.7,413.1,209.5z M437.6,221.7h28v342.7h-28V221.7z"/>
</svg>
