<?xml version="1.0" encoding="utf-8"?>
<!-- Generator: Adobe Illustrator 18.1.0, SVG Export Plug-In . SVG Version: 6.00 Build 0)  -->
<svg version="1.1" id="Layer_1" xmlns="http://www.w3.org/2000/svg" xmlns:xlink="http://www.w3.org/1999/xlink" x="0px" y="0px"
	 viewBox="0 0 612 792" enable-background="new 0 0 612 792" xml:space="preserve">
<path fill="#34DB93" d="M367.1,392.9H145.6c-6.8,0-12.2,5.5-12.2,12.2v140.5c0,6.8,5.5,12.2,12.2,12.2h221.5
	c6.8,0,12.2-5.5,12.2-12.2V405.1C379.3,398.3,373.8,392.9,367.1,392.9z M354.8,533.3H157.8v-116h197.1L354.8,533.3L354.8,533.3z"/>
<path fill="#34DB93" d="M509.8,415.7l-98.6,24.5c-5.5,1.3-9.3,6.3-9.3,11.9v47.3c0,5.7,3.9,10.6,9.4,11.9l98.6,23.7
	c0.9,0.2,1.9,0.3,2.9,0.3c2.7,0,5.4-0.9,7.6-2.6c2.9-2.3,4.7-5.9,4.7-9.6v-95.4c0-3.8-1.7-7.3-4.7-9.6
	C517.3,415.6,513.5,414.8,509.8,415.7z M500.5,507.5l-74.1-17.8v-28.1l74.1-18.4V507.5z"/>
<path fill="#34DB93" d="M186.2,367.3c25.8,0,46.8-20.4,46.8-45.4s-21-45.4-46.8-45.4s-46.8,20.4-46.8,45.4S160.4,367.3,186.2,367.3z
	 M186.2,300.9c12.3,0,22.4,9.4,22.4,20.9s-10,20.9-22.4,20.9s-22.4-9.4-22.4-20.9S173.9,300.9,186.2,300.9z"/>
<path fill="#34DB93" d="M314.7,239.6c-36.4,0-66,28.6-66,63.9s29.6,63.9,66,63.9s66-28.6,66-63.9S351.1,239.6,314.7,239.6z
	 M314.7,342.8c-22.9,0-41.6-17.7-41.6-39.4s18.6-39.4,41.6-39.4s41.6,17.7,41.6,39.4C356.2,325.1,337.6,342.8,314.7,342.8z"/>
</svg>
